<?xml version="1.0" encoding="UTF-8"?>
<!DOCTYPE svg PUBLIC "-//W3C//DTD SVG 1.1//EN" "http://www.w3.org/Graphics/SVG/1.1/DTD/svg11.dtd">
<!-- Creator: CorelDRAW 2020 (64-Bit) -->
<svg xmlns="http://www.w3.org/2000/svg" xml:space="preserve" width="93.1058mm" height="30mm" version="1.1" style="shape-rendering:geometricPrecision; text-rendering:geometricPrecision; image-rendering:optimizeQuality; fill-rule:evenodd; clip-rule:evenodd"
viewBox="0 0 385.05 124.07"
 xmlns:xlink="http://www.w3.org/1999/xlink"
 xmlns:xodm="http://www.corel.com/coreldraw/odm/2003">
 <defs>
  <style type="text/css">
   <![CDATA[
    .fil1 {fill:#449AD5}
    .fil0 {fill:#0E407D;fill-rule:nonzero}
   ]]>
  </style>
 </defs>
 <g id="Layer_x0020_1">
  <metadata id="CorelCorpID_0Corel-Layer"/>
  <path class="fil0" d="M130.5 92.4l0 -60.73 45.2 0 11.28 11.28 0 21.26 -11.28 11.28 -30.45 0 0 16.92 -14.75 0zm14.75 -29.5l22.9 0 4.08 -3.99 0 -10.67 -4.08 -3.99 -22.9 0 0 18.65zm67.06 29.5l-21.17 -56.39 0 -4.34 13.88 0 17.35 47.2 2.6 0 17.44 -47.2 13.45 0 0 4.34 -21 56.39 -22.56 0zm116.25 0l0 -60.73 45.2 0 11.28 11.28 0 21.26 -11.28 11.28 -30.45 0 0 16.92 -14.75 0zm14.75 -29.5l22.9 0 4.08 -3.99 0 -10.67 -4.08 -3.99 -22.9 0 0 18.65zm-66.98 29.5l-12.67 -12.67 0 -35.4 12.67 -12.67 40.52 0 0 12.58 -33.23 0 -5.21 5.21 0 25.16 5.21 5.21 33.23 0 0 12.58 -40.52 0z"/>
  <polygon class="fil1" points="-0,0 100.24,0 100.24,100.24 50.12,100.24 25.55,100.24 25.55,74.69 25.55,25.55 74.69,25.55 74.69,74.69 50.12,74.69 50.12,100.24 50.12,124.07 -0,124.07 -0,100.24 "/>
 </g>
</svg>
